<?xml version="1.0" encoding="utf-8"?>
<!-- Generator: Adobe Illustrator 19.1.0, SVG Export Plug-In . SVG Version: 6.00 Build 0)  -->
<svg version="1.1" id="Layer_1" xmlns="http://www.w3.org/2000/svg" xmlns:xlink="http://www.w3.org/1999/xlink" x="0px" y="0px"
	 viewBox="0 0 64 64" enable-background="new 0 0 64 64" xml:space="preserve">
<g id="Bookmark">
	<path stroke="red" fill="red" d="M22,9.0098c-0.5468006,0-0.9902,0.4433002-0.9902,0.9902v28c0,0.5469017,0.4433994,0.9902,0.9902,0.9902
		c0.5468998,0,0.9902992-0.4432983,0.9902992-0.9902V10C22.9902992,9.4531002,22.5468998,9.0098,22,9.0098z"/>
	<path stroke="red" fill="red" d="M45,0H19c-2.2091007,0-4,1.7859-4,3.9890001v59.8345032C15,63.9432983,15.0523005,64,15.1511002,64
		C16.8694,64,32.6674995,46.8703003,32.6674995,46.8703003S47.2734985,64,48.8604012,64C48.9515991,64,49,63.9431992,49,63.8235016
		V3.9890001C49,1.7859,47.2092018,0,45,0z M47.0028,59.8488998c-3.0844994-3.1352997-8.2319984-8.8991013-12.8156013-14.274498
		l-1.4611969-1.7136002l-1.526701,1.6553993c-5.1358013,5.5685997-10.9078999,11.5346985-14.2020016,14.5918007V3.9890001
		c0-1.0983,0.8984013-1.9918001,2.0027008-1.9918001h26c1.1043015,0,2.0028,0.8935001,2.0028,1.9918001V59.8488998z"/>
</g>
<g>
</g>
<g>
</g>
<g>
</g>
<g>
</g>
<g>
</g>
<g>
</g>
<g>
</g>
<g>
</g>
<g>
</g>
<g>
</g>
<g>
</g>
<g>
</g>
<g>
</g>
<g>
</g>
<g>
</g>
</svg>
